{"title":"Chromeskull.Laid.to.Rest.2.2011.Unrated.DC.DVDRip.XVID.AC3.HQ.Hi","uid":6700860,"size":1579964539,"categoryP":"video","categoryS":"movies","magnet":"?xt=urn:btih:742242130823f9f1f67ab6c2cc6ae29f02ac598d&amp;dn=Chromeskull.Laid.to.Rest.2.2011.Unrated.DC.DVDRip.XVID.AC3.HQ.Hi&amp;tr=udp%3A%2F%2Ftracker.openbittorrent.com%3A80&amp;tr=udp%3A%2F%2Fopen.demonii.com%3A1337&amp;tr=udp%3A%2F%2Ftracker.coppersurfer.tk%3A6969&amp;tr=udp%3A%2F%2Fexodus.desync.com%3A6969","seeders":0,"leechers":0,"uploader":"SnowCrash03","files":-1,"time":1316967661,"description":"   [IMG]http://img692.imageshack.us/img692/6968/39148157.jpg[/IMG]\n\n\n[color=blue][size=4][b]Chromeskull.Laid.to.Rest.2.2011.Unrated.DC.DVDRip.XVID.AC3.HQ.Hive-CM8[/b][/size][/color]\n\n\n[b]Thx Hive\n\nCM8 Doing It Right The First Time :D\n\n\nSource: DVD9\n\nEncode: \nDVD had great quality, there is no need to do a bdrip later on.\ndid the usual brightness, sharpness, rgb, denoise.\ndvd also had deleted scenes and bloopers, which i attached as single files.\ngot very nice - enjoy\n\nVideo: 720x400 @bitrate 1800 2pass\nAudio: English AC3 5.1 @320\nSample: yes, included\nBonus: yes, deleted scenes and bloopers[/b]\n\n\n[url]http://www.imdb.com/title/tt1792799/[/url]\n\n\nGeneral\nComplete name                    : Chromeskull.Laid.to.Rest.2.2011.DVDRip.XVID.AC3.HQ.Hive-CM8.avi\nFormat                           : AVI\nFormat/Info                      : Audio Video Interleave\nFile size                        : 1.39 GiB\nDuration                         : 1h 33mn\nOverall bit rate                 : 2 129 Kbps\nWriting application              : Nandub v1.0rc2\nWriting library                  : Nandub build 1853/release\n\nVideo\nID                               : 0\nFormat                           : MPEG-4 Visual\nFormat profile                   : Advanced Simple@L5\nFormat settings, BVOP            : 2\nFormat settings, QPel            : Yes\nFormat settings, GMC             : No warppoints\nFormat settings, Matrix          : Default (H.263)\nMuxing mode                      : Packed bitstream\nCodec ID                         : XVID\nCodec ID/Hint                    : XviD\nDuration                         : 1h 33mn\nBit rate                         : 1 800 Kbps\nWidth                            : 720 pixels\nHeight                           : 400 pixels\nDisplay aspect ratio             : 16:9\nFrame rate                       : 23.976 fps\nColor space                      : YUV\nChroma subsampling               : 4:2:0\nBit depth                        : 8 bits\nScan type                        : Progressive\nCompression mode                 : Lossy\nBits/(Pixel*Frame)               : 0.261\nStream size                      : 1.17 GiB (85%)\nWriting library                  : XviD 1.2.1 (UTC 2008-12-04)\n\nAudio\nID                               : 1\nFormat                           : AC-3\nFormat/Info                      : Audio Coding 3\nMode extension                   : CM (complete main)\nCodec ID                         : 2000\nDuration                         : 1h 33mn\nBit rate mode                    : Constant\nBit rate                         : 320 Kbps\nChannel(s)                       : 6 channels\nChannel positions                : Front: L C R, Side: L R, LFE\nSampling rate                    : 48.0 KHz\nBit depth                        : 16 bits\nCompression mode                 : Lossy\nStream size                      : 214 MiB (15%)\nAlignment                        : Split accross interleaves\nInterleave, duration             : 42 ms (1.00 video frame)\nInterleave, preload duration     : 500 ms\n\n\nPlot:\nThe sequel to the 2009 horror hit &quot;Laid to Rest&quot; brings back ChromeSkull, who\nbarely escaped death in the first movie and is hell-bent on continuing where\nhe left off and forging a new path of terror and destruction.\n\n\nCast:\nBrian Austin Green  ...   Preston\nThomas Dekker       ...   Tommy\nMimi Michaels       ...   Jess\nGail O'Grady        ...   Nancy\nJohnathon Schaech   ...   Agent Sells\n","torrent":{"xt":"urn:btih:742242130823f9f1f67ab6c2cc6ae29f02ac598d","amp;dn":"Chromeskull.Laid.to.Rest.2.2011.Unrated.DC.DVDRip.XVID.AC3.HQ.Hi","amp;tr":["udp%3A%2F%2Ftracker.openbittorrent.com%3A80","udp%3A%2F%2Fopen.demonii.com%3A1337","udp%3A%2F%2Ftracker.coppersurfer.tk%3A6969","udp%3A%2F%2Fexodus.desync.com%3A6969"],"infoHash":"742242130823f9f1f67ab6c2cc6ae29f02ac598d","infoHashBuffer":{"type":"Buffer","data":[116,34,66,19,8,35,249,241,246,122,182,194,204,106,226,159,2,172,89,141]},"announce":[],"urlList":[]}}